<svg width="7" height="10" viewBox="0 0 7 10" fill="none" xmlns="http://www.w3.org/2000/svg">
<path fill-rule="evenodd" clip-rule="evenodd" d="M0 3.77708C0 1.69417 1.45995 0 3.25397 0C5.04799 0 6.50794 1.69417 6.50794 3.77708C6.50794 6.73667 3.55984 9.7925 3.43438 9.92125C3.38268 9.97375 3.31832 10 3.25397 10C3.18961 10 3.12526 9.97375 3.07355 9.92083C2.9481 9.7925 0 6.73667 0 3.77708ZM1.44621 3.75C1.44621 4.89875 2.25717 5.83333 3.25397 5.83333C4.25077 5.83333 5.06173 4.89875 5.06173 3.75C5.06173 2.60125 4.25077 1.66667 3.25397 1.66667C2.25717 1.66667 1.44621 2.60125 1.44621 3.75Z" fill="#CCCCCC"/>
</svg>
