<svg width="18" height="15" viewBox="0 0 18 15" fill="none" xmlns="http://www.w3.org/2000/svg">
<g clip-path="url(#clip0_1_1949)">
<path opacity="0.499209" fill-rule="evenodd" clip-rule="evenodd" d="M10.1639 8.52908H16.1829C16.3507 8.52908 16.4868 8.68648 16.4868 8.88064V10.0416C16.4868 10.2029 16.3928 10.3389 16.2647 10.3802V11.3929C16.2647 12.2109 15.8164 12.9099 15.1892 13.1789L15.3465 13.4549C15.439 13.6169 15.4003 13.835 15.2602 13.9419C15.2087 13.9812 15.1506 14 15.0931 14C14.9944 14 14.8976 13.9445 14.8392 13.842L14.5283 13.2969H8.0326L7.7217 13.842C7.66329 13.9445 7.56647 14 7.46775 14C7.4103 14 7.35224 13.9813 7.30068 13.9419C7.16058 13.835 7.12189 13.6169 7.21435 13.4549L7.37174 13.1789C6.74445 12.9099 6.29616 12.2109 6.29616 11.3929V10.3802C6.16806 10.3389 6.0741 10.2029 6.0741 10.0416V8.88064C6.0741 8.68648 6.21017 8.52908 6.37802 8.52908H6.70138V3.32853C6.70138 2.59597 7.21659 2 7.84987 2C8.34116 2 8.77792 2.36134 8.93671 2.89916L9.05347 3.29633C9.67941 3.24704 10.2743 3.70536 10.4569 4.43007L10.5472 4.78857C10.5697 4.87808 10.5606 4.97431 10.5218 5.05604C10.4831 5.13779 10.4178 5.19837 10.3404 5.22446L8.30225 5.91141C8.14641 5.9679 7.96778 5.8543 7.92544 5.67221L7.83516 5.31371C7.655 4.59842 7.93419 3.85252 8.47111 3.49925L8.36137 3.12596C8.28675 2.87321 8.08112 2.70312 7.84987 2.70312C7.55174 2.70312 7.30922 2.98367 7.30922 3.32853V8.52908H7.91767C7.93758 8.35719 8.06453 8.22453 8.21856 8.22453H9.86298C10.017 8.22453 10.144 8.35721 10.1639 8.52908ZM9.8786 4.64773L9.87331 4.62676C9.77701 4.2444 9.47384 3.99552 9.1457 3.99552C9.07572 3.99552 9.0046 4.00684 8.93413 4.0306C8.5331 4.16577 8.30189 4.65312 8.41874 5.11702L8.42403 5.138L9.8786 4.64773ZM8.52248 8.92766H9.55906V11.2003H8.52248V8.92766ZM15.6569 10.2984C15.6569 10.0938 15.7447 9.91245 15.879 9.80211H15.879V9.2322H10.1669V11.5519C10.1669 11.746 10.0308 11.9034 9.863 11.9034H8.21858C8.05074 11.9034 7.91466 11.746 7.91466 11.5519V9.2322H6.68194V9.80211C6.81623 9.91245 6.904 10.0938 6.904 10.2984V11.3929C6.904 12.0551 7.3697 12.5938 7.94212 12.5938H14.6188C15.1912 12.5938 15.6569 12.0551 15.6569 11.3929V10.2984Z" fill="#222222"/>
<path d="M2.952 3.6V12H2.088V4.368H0.108V3.6H2.952Z" fill="#222222" fill-opacity="0.5"/>
</g>
<defs>
<clipPath id="clip0_1_1949">
<rect width="18" height="15" fill="white"/>
</clipPath>
</defs>
</svg>
